# xmcd
#
# Track frame offsets: 
#        150
#        15009
#        32973
#        52734
#        65911
#        83669
#        100154
#        121240
#        140432
#        162907
#        173757
#        187358
#        202020
#        218528
#        235643
#        251721
#        272179
#        300578
#        323614
#        343205
#
# Disc length: 4765 seconds
#
# Revision: 0
# Processed by: cddbd v1.5.2PL0 Copyright (c) Steve Scherf et al.
# Submitted via: ExactAudioCopy v1.1
#
DISCID=17129b14
DTITLE=Various Artist - I Love 90's
DYEAR=1900
DGENRE=Dance
TTITLE0=Robin S. - Show Me Love
TTITLE1=Crystal Waters - Gypsy Woman (La Da Dee La Da Da)
TTITLE2=Jamiroquai - Space Cowboy (Classic Radio)
TTITLE3=CeCe Peniston - Finally (7" Choice Mix)
TTITLE4=Livin' Joy - Dreamer (Radio Edit)
TTITLE5=Basement Jaxx - Red Alert (Jaxx Club Remix)
TTITLE6=Armand Van Helden Feat. Duane Harden - You Don't Know Me
TTITLE7=Everything But The Girl - Missing (Todd Terry Club Remix)
TTITLE8=Moloko - Sing It Back (Boris Musical Mix Edit)
TTITLE9=Kenny "Dope" Presents The Bucketheads - The Bomb! (These Sound
TTITLE9=s Fall Into My Mind) (Radio Edit)
TTITLE10=Paul Johnson - Get Get Down (Radio Edit)
TTITLE11=Todd Terry - Something's Going On (Tee's Radio Edit)
TTITLE12=Nightcrawlers - Pushing The Feeling On (The Dub Of Doom - Sho
TTITLE12=rt)
TTITLE13=Gusto - Disco's Revenge (Mole Hole Radio Edit)
TTITLE14=David Morales Presents The Face Feat. Juliet Roberts - Needin
TTITLE14=' U (Radio Edit)
TTITLE15=Alison Limerick - Where Love Lives (Come On In) (Radio Edit)
TTITLE16=Degrees Of Motion - Shine On
TTITLE17=Gat Decor - Passion
TTITLE18=Ultra Naté - Free
TTITLE19=De' Lacy - Hideaway (Deep Dish Radio Edit)
EXTD=
EXTT0=
EXTT1=
EXTT2=
EXTT3=
EXTT4=
EXTT5=
EXTT6=
EXTT7=
EXTT8=
EXTT9=
EXTT10=
EXTT11=
EXTT12=
EXTT13=
EXTT14=
EXTT15=
EXTT16=
EXTT17=
EXTT18=
EXTT19=
PLAYORDER=
